M48
METRIC,0000.00
T01C0.74
T02C1.1
T03C5.5
%
T01
X+002111Y+001649
X+002365Y+001649
X+002619Y+001649
X+002873Y+001649
X+003127Y+001649
X+003381Y+001649
X+003635Y+001649
X+003889Y+001649
X+003889Y+002411
X+003635Y+002411
X+003381Y+002411
X+003127Y+002411
X+002873Y+002411
X+002619Y+002411
X+002365Y+002411
X+002111Y+002411
T02
X+001200Y+003000
X+001337Y+002311
X+001727Y+001727
X+002311Y+001337
X+003000Y+001200
X+003689Y+001337
X+004273Y+001727
X+004663Y+002311
X+004800Y+003000
X+004663Y+003689
X+004273Y+004273
X+003689Y+004663
X+003000Y+004800
X+002311Y+004663
X+001727Y+004273
X+001337Y+003689
T03
X+003000Y+003000
T00
M30
