%TF.GenerationSoftware,Novarm,DipTrace,4.2.0.1*%
%TF.CreationDate,2022-05-12T18:09:18+00:00*%
%FSLAX35Y35*%
%MOMM*%
%TF.FileFunction,Copper,L2,Bot*%
%TF.Part,Single*%
%AMOUTLINE0*
4,1,28,
0.30502,-0.73499,
-0.30498,-0.73501,
-0.36969,-0.72649,
-0.42998,-0.70152,
-0.48176,-0.66179,
-0.52149,-0.61001,
-0.54647,-0.54972,
-0.55499,-0.48501,
-0.55501,0.48499,
-0.54649,0.54969,
-0.52152,0.60999,
-0.48179,0.66177,
-0.43002,0.7015,
-0.36972,0.72647,
-0.30502,0.73499,
0.30498,0.73501,
0.36969,0.72649,
0.42998,0.70152,
0.48176,0.66179,
0.52149,0.61001,
0.54647,0.54972,
0.55499,0.48501,
0.55501,-0.48499,
0.54649,-0.54969,
0.52152,-0.60999,
0.48179,-0.66177,
0.43002,-0.7015,
0.36972,-0.72647,
0.30502,-0.73499,
0*%
%AMOUTLINE3*
4,1,28,
-0.30502,0.73499,
0.30498,0.73501,
0.36969,0.72649,
0.42998,0.70152,
0.48176,0.66179,
0.52149,0.61001,
0.54647,0.54972,
0.55499,0.48501,
0.55501,-0.48499,
0.54649,-0.54969,
0.52152,-0.60999,
0.48179,-0.66177,
0.43002,-0.7015,
0.36972,-0.72647,
0.30502,-0.73499,
-0.30498,-0.73501,
-0.36969,-0.72649,
-0.42998,-0.70152,
-0.48176,-0.66179,
-0.52149,-0.61001,
-0.54647,-0.54972,
-0.55499,-0.48501,
-0.55501,0.48499,
-0.54649,0.54969,
-0.52152,0.60999,
-0.48179,0.66177,
-0.43002,0.7015,
-0.36972,0.72647,
-0.30502,0.73499,
0*%
%AMOUTLINE6*
4,1,28,
-0.70999,-0.24002,
-0.71001,0.23998,
-0.70149,0.30468,
-0.67652,0.36498,
-0.63679,0.41676,
-0.58502,0.45649,
-0.52472,0.48146,
-0.46002,0.48998,
0.45998,0.49002,
0.52469,0.4815,
0.58498,0.45653,
0.63676,0.4168,
0.67649,0.36502,
0.70147,0.30473,
0.70999,0.24002,
0.71001,-0.23998,
0.70149,-0.30468,
0.67652,-0.36498,
0.63679,-0.41676,
0.58502,-0.45649,
0.52472,-0.48146,
0.46002,-0.48998,
-0.45998,-0.49002,
-0.52469,-0.4815,
-0.58498,-0.45653,
-0.63676,-0.4168,
-0.67649,-0.36502,
-0.70147,-0.30473,
-0.70999,-0.24002,
0*%
%AMOUTLINE9*
4,1,28,
0.70999,0.24002,
0.71001,-0.23998,
0.70149,-0.30468,
0.67652,-0.36498,
0.63679,-0.41676,
0.58502,-0.45649,
0.52472,-0.48146,
0.46002,-0.48998,
-0.45998,-0.49002,
-0.52469,-0.4815,
-0.58498,-0.45653,
-0.63676,-0.4168,
-0.67649,-0.36502,
-0.70147,-0.30473,
-0.70999,-0.24002,
-0.71001,0.23998,
-0.70149,0.30468,
-0.67652,0.36498,
-0.63679,0.41676,
-0.58502,0.45649,
-0.52472,0.48146,
-0.46002,0.48998,
0.45998,0.49002,
0.52469,0.4815,
0.58498,0.45653,
0.63676,0.4168,
0.67649,0.36502,
0.70147,0.30473,
0.70999,0.24002,
0*%
%TA.AperFunction,Conductor*%
%ADD14C,0.3*%
%ADD15C,0.33*%
%ADD19R,0.3X0.8*%
%ADD20R,1.9X1.2*%
%TA.AperFunction,ComponentPad*%
%ADD21R,1.6X1.6*%
%ADD22C,1.65*%
%ADD36OUTLINE0*%
%ADD39OUTLINE3*%
%ADD42OUTLINE6*%
%ADD45OUTLINE9*%
G75*
G01*
%LPD*%
X1785316Y2024315D2*
D14*
Y1864315D1*
X1784816Y1863815D1*
Y1765692D1*
Y1525688D2*
Y1582188D1*
D15*
Y1620692D1*
X1809816Y1645692D1*
X1756566Y1344062D2*
Y1447438D1*
D14*
X1734816Y1469188D1*
Y1525688D1*
X1574316Y1344317D2*
X1756311D1*
X1756566Y1344062D1*
X2293316Y2024330D2*
Y2010315D1*
X2359316Y1944315D1*
Y1384205D1*
X2144426Y1169315D1*
X1820205D1*
X1756566Y1232955D1*
Y1344062D1*
X1926566Y1344068D2*
D15*
Y1354315D1*
X1834816Y1446065D1*
D14*
Y1525688D1*
X2158313Y1733815D2*
X2055066D1*
X2023189Y1765692D1*
X1884816D1*
X2039316Y2024322D2*
Y2012315D1*
X1884816Y1857815D1*
Y1765692D1*
X1531316Y2024307D2*
Y1766815D1*
X1511313D1*
X1658819D1*
X1659942Y1765692D1*
X1734816D1*
X2158319Y1554815D2*
X1945442D1*
X1916316Y1525688D1*
X1884816D1*
X1277316Y2024300D2*
Y1674315D1*
X1363816Y1587815D1*
X1511319D1*
X1404316Y1344313D2*
Y1480812D1*
X1511319Y1587815D1*
X1277316Y2024300D2*
Y2076315D1*
X1350316Y2149315D1*
X2109316D1*
X2170316Y2088315D1*
Y1957315D1*
X2291316Y1836315D1*
Y1607315D1*
X2238816Y1554815D1*
X2158319D1*
D36*
X1404316Y1344313D3*
D39*
X1574316Y1344317D3*
D36*
X1756566Y1344062D3*
D39*
X1926566Y1344068D3*
D19*
X1734816Y1765692D3*
X1784816D3*
X1834816D3*
X1884816D3*
Y1525688D3*
X1834816D3*
X1784816D3*
X1734816D3*
D20*
X1809816Y1645692D3*
D21*
X1277316Y2024300D3*
D22*
X1531316Y2024307D3*
X1785316Y2024315D3*
X2039316Y2024322D3*
X2293316Y2024330D3*
D42*
X1511313Y1766815D3*
D45*
X1511319Y1587815D3*
D42*
X2158313Y1733815D3*
D45*
X2158319Y1554815D3*
M02*
