%TF.GenerationSoftware,Novarm,DipTrace,4.2.0.1*%
%TF.CreationDate,2022-05-12T15:21:16+00:00*%
%FSLAX35Y35*%
%MOMM*%
%TF.FileFunction,Copper,L1,Top*%
%TF.Part,Single*%
%ADD51C,0.15686*%
%TA.AperFunction,ComponentPad*%
%ADD18R,1.92X1.92*%
%ADD19C,1.92*%
%ADD22C,1.95*%
%ADD23C,3.916*%
%ADD24R,1.5X1.5*%
%ADD25C,1.5*%
%ADD26R,1.05X1.05*%
%ADD27C,1.05*%
G75*
G01*
%LPD*%
D18*
X3055544Y5508150D3*
D19*
X3309544Y5508161D3*
X3563544Y5508172D3*
X3817544Y5508183D3*
D22*
X4877820Y1874567D3*
D23*
X5382820Y1354567D3*
Y2359567D3*
X4377820D3*
Y1354567D3*
D22*
X2053169Y1874567D3*
D23*
X2558192Y1354589D3*
X2558148Y2359589D3*
X1553148Y2359545D3*
X1553192Y1354545D3*
D24*
X5352495Y3920991D3*
D25*
X5352517Y3666991D3*
X5352538Y3412991D3*
D24*
X4604374Y4822519D3*
D25*
X4350374Y4822513D3*
X4096374Y4822508D3*
D24*
X2479993Y4822506D3*
D25*
X2733993Y4822513D3*
X2987993Y4822521D3*
D24*
X1749937Y3891103D3*
D25*
Y3637103D3*
Y3383103D3*
D26*
X4554037Y3927754D3*
D27*
X4554030Y4054754D3*
X4554044Y3800754D3*
D26*
X2598950Y3927760D3*
D27*
Y4054760D3*
Y3800760D3*
X3031711Y5887815D2*
D51*
X3026882Y5897473D1*
X3017111Y5907244D1*
X3007452Y5912073D1*
X2988023D1*
X2978252Y5907244D1*
X2968594Y5897473D1*
X2963652Y5887815D1*
X2958823Y5873215D1*
Y5848844D1*
X2963652Y5834356D1*
X2968594Y5824586D1*
X2978252Y5814927D1*
X2988023Y5809986D1*
X3007452D1*
X3017111Y5814927D1*
X3026882Y5824586D1*
X3031711Y5834356D1*
Y5848844D1*
X3007452D1*
X3171611Y5911961D2*
X3224957D1*
X3195870Y5873103D1*
X3210470D1*
X3220128Y5868273D1*
X3224957Y5863444D1*
X3229899Y5848844D1*
Y5839186D1*
X3224957Y5824586D1*
X3215299Y5814815D1*
X3200699Y5809986D1*
X3186099D1*
X3171611Y5814815D1*
X3166782Y5819756D1*
X3161841Y5829415D1*
X3266101Y5819756D2*
X3261272Y5814815D1*
X3266101Y5809986D1*
X3271042Y5814815D1*
X3266101Y5819756D1*
X3312186Y5911961D2*
X3365532D1*
X3336444Y5873103D1*
X3351044D1*
X3360703Y5868273D1*
X3365532Y5863444D1*
X3370473Y5848844D1*
Y5839186D1*
X3365532Y5824586D1*
X3355873Y5814815D1*
X3341273Y5809986D1*
X3326673D1*
X3312186Y5814815D1*
X3307356Y5819756D1*
X3302415Y5829415D1*
X3578432Y5809986D2*
X3539462Y5912073D1*
X3500603Y5809986D1*
X3515203Y5844015D2*
X3563832D1*
X3614746Y5887703D2*
Y5892532D1*
X3619576Y5902303D1*
X3624405Y5907132D1*
X3634176Y5911961D1*
X3653605D1*
X3663263Y5907132D1*
X3668093Y5902303D1*
X3673034Y5892532D1*
Y5882873D1*
X3668093Y5873103D1*
X3658434Y5858615D1*
X3609805Y5809986D1*
X3677863D1*
X3885822D2*
X3846851Y5912073D1*
X3807993Y5809986D1*
X3822593Y5844015D2*
X3871222D1*
X3917195Y5892532D2*
X3926966Y5897473D1*
X3941566Y5911961D1*
Y5809986D1*
X3079745Y1848853D2*
X3070086Y1858624D1*
X3055486Y1863453D1*
X3036057D1*
X3021457Y1858624D1*
X3011686Y1848853D1*
Y1839195D1*
X3016628Y1829424D1*
X3021457Y1824595D1*
X3031116Y1819766D1*
X3060316Y1809995D1*
X3070086Y1805166D1*
X3074916Y1800224D1*
X3079745Y1790566D1*
Y1775966D1*
X3070086Y1766307D1*
X3055486Y1761366D1*
X3036057D1*
X3021457Y1766307D1*
X3011686Y1775966D1*
X3116059Y1839083D2*
Y1843912D1*
X3120888Y1853683D1*
X3125717Y1858512D1*
X3135488Y1863341D1*
X3154917D1*
X3164576Y1858512D1*
X3169405Y1853683D1*
X3174347Y1843912D1*
Y1834253D1*
X3169405Y1824483D1*
X3159747Y1809995D1*
X3111117Y1761366D1*
X3179176D1*
X3849935Y1848853D2*
X3840276Y1858624D1*
X3825676Y1863453D1*
X3806247D1*
X3791647Y1858624D1*
X3781876Y1848853D1*
Y1839195D1*
X3786818Y1829424D1*
X3791647Y1824595D1*
X3801306Y1819766D1*
X3830506Y1809995D1*
X3840276Y1805166D1*
X3845106Y1800224D1*
X3849935Y1790566D1*
Y1775966D1*
X3840276Y1766307D1*
X3825676Y1761366D1*
X3806247D1*
X3791647Y1766307D1*
X3781876Y1775966D1*
X3881307Y1843912D2*
X3891078Y1848853D1*
X3905678Y1863341D1*
Y1761366D1*
X4758979Y3181084D2*
X4749320Y3176255D1*
X4739549Y3166484D1*
X4734720Y3156826D1*
Y3137396D1*
X4739549Y3127626D1*
X4749320Y3117967D1*
X4758979Y3113026D1*
X4773579Y3108196D1*
X4797949D1*
X4812437Y3113026D1*
X4822208Y3117967D1*
X4831866Y3127626D1*
X4836808Y3137396D1*
Y3156826D1*
X4831866Y3166484D1*
X4822208Y3176255D1*
X4812437Y3181084D1*
X4768749Y3212457D2*
X4817379D1*
X4831866Y3217286D1*
X4836808Y3227057D1*
Y3241657D1*
X4831866Y3251315D1*
X4817379Y3265915D1*
X4768749D2*
X4836808D1*
X4768749Y3297288D2*
X4836808D1*
X4797949D2*
X4783349Y3302229D1*
X4773579Y3311888D1*
X4768749Y3321658D1*
Y3336258D1*
X4754262Y3367631D2*
X4749320Y3377402D1*
X4734832Y3392002D1*
X4836808D1*
X2463431Y3392369D2*
X2473090Y3397198D1*
X2482861Y3406969D1*
X2487690Y3416628D1*
Y3436057D1*
X2482861Y3445828D1*
X2473090Y3455486D1*
X2463431Y3460428D1*
X2448831Y3465257D1*
X2424461D1*
X2409973Y3460428D1*
X2400202Y3455486D1*
X2390544Y3445828D1*
X2385602Y3436057D1*
Y3416628D1*
X2390544Y3406969D1*
X2400202Y3397198D1*
X2409973Y3392369D1*
X2453661Y3360997D2*
X2405031D1*
X2390544Y3356167D1*
X2385602Y3346397D1*
Y3331797D1*
X2390544Y3322138D1*
X2405031Y3307538D1*
X2453661D2*
X2385602D1*
X2453661Y3276166D2*
X2385602D1*
X2424461D2*
X2439061Y3271224D1*
X2448831Y3261566D1*
X2453661Y3251795D1*
Y3237195D1*
X2463319Y3200881D2*
X2468148D1*
X2477919Y3196052D1*
X2482748Y3191222D1*
X2487578Y3181452D1*
Y3162022D1*
X2482748Y3152364D1*
X2477919Y3147535D1*
X2468148Y3142593D1*
X2458490D1*
X2448719Y3147535D1*
X2434231Y3157193D1*
X2385602Y3205822D1*
Y3137764D1*
X2056212Y5333769D2*
X2017242Y5435857D1*
X1978383Y5333769D1*
X1992983Y5367798D2*
X2041612D1*
X2087585Y5401827D2*
Y5333769D1*
Y5382398D2*
X2102185Y5396998D1*
X2111956Y5401827D1*
X2126443D1*
X2136214Y5396998D1*
X2141043Y5382398D1*
Y5333769D1*
Y5382398D2*
X2155643Y5396998D1*
X2165414Y5401827D1*
X2179902D1*
X2189673Y5396998D1*
X2194614Y5382398D1*
Y5333769D1*
X2225987Y5401827D2*
Y5299740D1*
Y5387227D2*
X2235757Y5396886D1*
X2245416Y5401827D1*
X2260016D1*
X2269787Y5396886D1*
X2279445Y5387227D1*
X2284387Y5372627D1*
Y5362857D1*
X2279445Y5348369D1*
X2269787Y5338598D1*
X2260016Y5333769D1*
X2245416D1*
X2235757Y5338598D1*
X2225987Y5348369D1*
X2320701Y5411486D2*
Y5416315D1*
X2325530Y5426086D1*
X2330359Y5430915D1*
X2340130Y5435744D1*
X2359559D1*
X2369218Y5430915D1*
X2374047Y5426086D1*
X2378988Y5416315D1*
Y5406657D1*
X2374047Y5396886D1*
X2364388Y5382398D1*
X2315759Y5333769D1*
X2383818D1*
X4798876Y5372389D2*
X4759905Y5474477D1*
X4721046Y5372389D1*
X4735646Y5406418D2*
X4784276D1*
X4830248Y5440447D2*
Y5372389D1*
Y5421018D2*
X4844848Y5435618D1*
X4854619Y5440447D1*
X4869107D1*
X4878877Y5435618D1*
X4883707Y5421018D1*
Y5372389D1*
Y5421018D2*
X4898307Y5435618D1*
X4908077Y5440447D1*
X4922565D1*
X4932336Y5435618D1*
X4937277Y5421018D1*
Y5372389D1*
X4968650Y5440447D2*
Y5338360D1*
Y5425847D2*
X4978421Y5435506D1*
X4988079Y5440447D1*
X5002679D1*
X5012450Y5435506D1*
X5022108Y5425847D1*
X5027050Y5411247D1*
Y5401477D1*
X5022108Y5386989D1*
X5012450Y5377218D1*
X5002679Y5372389D1*
X4988079D1*
X4978421Y5377218D1*
X4968650Y5386989D1*
X5058423Y5454935D2*
X5068193Y5459877D1*
X5082793Y5474364D1*
Y5372389D1*
X2698627Y3388812D2*
X2708285Y3393641D1*
X2718056Y3403412D1*
X2722885Y3413071D1*
Y3432500D1*
X2718056Y3442271D1*
X2708285Y3451929D1*
X2698627Y3456871D1*
X2684027Y3461700D1*
X2659656D1*
X2645169Y3456871D1*
X2635398Y3451929D1*
X2625739Y3442271D1*
X2620798Y3432500D1*
Y3413071D1*
X2625739Y3403412D1*
X2635398Y3393641D1*
X2645169Y3388812D1*
X2722885Y3357440D2*
X2620798Y3333069D1*
X2722885Y3308810D1*
X2620798Y3284552D1*
X2722885Y3260181D1*
X2715529Y3185121D2*
X2628042D1*
X2671729Y3228809D2*
Y3141321D1*
X4514406Y3181084D2*
X4504747Y3176255D1*
X4494977Y3166484D1*
X4490147Y3156826D1*
Y3137396D1*
X4494977Y3127626D1*
X4504747Y3117967D1*
X4514406Y3113026D1*
X4529006Y3108196D1*
X4553377D1*
X4567864Y3113026D1*
X4577635Y3117967D1*
X4587294Y3127626D1*
X4592235Y3137396D1*
Y3156826D1*
X4587294Y3166484D1*
X4577635Y3176255D1*
X4567864Y3181084D1*
X4490147Y3212457D2*
X4592235Y3236827D1*
X4490147Y3261086D1*
X4592235Y3285344D1*
X4490147Y3309715D1*
X4497504Y3384775D2*
X4584991D1*
X4541304Y3341088D2*
Y3428575D1*
X4814618Y5671315D2*
X4809789Y5680973D1*
X4800018Y5690744D1*
X4790360Y5695573D1*
X4770930D1*
X4761160Y5690744D1*
X4751501Y5680973D1*
X4746560Y5671315D1*
X4741730Y5656715D1*
Y5632344D1*
X4746560Y5617856D1*
X4751501Y5608085D1*
X4761160Y5598427D1*
X4770930Y5593485D1*
X4790360D1*
X4800018Y5598427D1*
X4809789Y5608085D1*
X4814618Y5617856D1*
X4845991Y5695573D2*
X4870361Y5593485D1*
X4894620Y5695573D1*
X4918878Y5593485D1*
X4943249Y5695573D1*
X4974622Y5644473D2*
X5030776D1*
X2119238Y5616182D2*
X2114408Y5625841D1*
X2104638Y5635612D1*
X2094979Y5640441D1*
X2075550D1*
X2065779Y5635612D1*
X2056121Y5625841D1*
X2051179Y5616182D1*
X2046350Y5601582D1*
Y5577212D1*
X2051179Y5562724D1*
X2056121Y5552953D1*
X2065779Y5543295D1*
X2075550Y5538353D1*
X2094979D1*
X2104638Y5543295D1*
X2114408Y5552953D1*
X2119238Y5562724D1*
X2150610Y5640441D2*
X2174981Y5538353D1*
X2199239Y5640441D1*
X2223498Y5538353D1*
X2247869Y5640441D1*
X2279241Y5589341D2*
X2335395D1*
M02*
