%TF.GenerationSoftware,Novarm,DipTrace,4.2.0.1*%
%TF.CreationDate,2022-05-12T15:21:27+00:00*%
%FSLAX35Y35*%
%MOMM*%
%TF.FileFunction,Copper,L2,Bot*%
%TF.Part,Single*%
%AMOUTLINE0*
4,1,28,
0.885,0.315,
0.885,-0.315,
0.87648,-0.3797,
0.85151,-0.44,
0.81178,-0.49178,
0.76,-0.53151,
0.6997,-0.55648,
0.635,-0.565,
-0.635,-0.565,
-0.6997,-0.55648,
-0.76,-0.53151,
-0.81178,-0.49178,
-0.85151,-0.44,
-0.87648,-0.3797,
-0.885,-0.315,
-0.885,0.315,
-0.87648,0.3797,
-0.85151,0.44,
-0.81178,0.49178,
-0.76,0.53151,
-0.6997,0.55648,
-0.635,0.565,
0.635,0.565,
0.6997,0.55648,
0.76,0.53151,
0.81178,0.49178,
0.85151,0.44,
0.87648,0.3797,
0.885,0.315,
0*%
%AMOUTLINE3*
4,1,28,
-0.885,-0.315,
-0.885,0.315,
-0.87648,0.3797,
-0.85151,0.44,
-0.81178,0.49178,
-0.76,0.53151,
-0.6997,0.55648,
-0.635,0.565,
0.635,0.565,
0.6997,0.55648,
0.76,0.53151,
0.81178,0.49178,
0.85151,0.44,
0.87648,0.3797,
0.885,0.315,
0.885,-0.315,
0.87648,-0.3797,
0.85151,-0.44,
0.81178,-0.49178,
0.76,-0.53151,
0.6997,-0.55648,
0.635,-0.565,
-0.635,-0.565,
-0.6997,-0.55648,
-0.76,-0.53151,
-0.81178,-0.49178,
-0.85151,-0.44,
-0.87648,-0.3797,
-0.885,-0.315,
0*%
%AMOUTLINE6*
4,1,28,
-0.315,0.885,
0.315,0.885,
0.3797,0.87648,
0.44,0.85151,
0.49178,0.81178,
0.53151,0.76,
0.55648,0.6997,
0.565,0.635,
0.565,-0.635,
0.55648,-0.6997,
0.53151,-0.76,
0.49178,-0.81178,
0.44,-0.85151,
0.3797,-0.87648,
0.315,-0.885,
-0.315,-0.885,
-0.3797,-0.87648,
-0.44,-0.85151,
-0.49178,-0.81178,
-0.53151,-0.76,
-0.55648,-0.6997,
-0.565,-0.635,
-0.565,0.635,
-0.55648,0.6997,
-0.53151,0.76,
-0.49178,0.81178,
-0.44,0.85151,
-0.3797,0.87648,
-0.315,0.885,
0*%
%AMOUTLINE9*
4,1,28,
0.315,-0.885,
-0.315,-0.885,
-0.3797,-0.87648,
-0.44,-0.85151,
-0.49178,-0.81178,
-0.53151,-0.76,
-0.55648,-0.6997,
-0.565,-0.635,
-0.565,0.635,
-0.55648,0.6997,
-0.53151,0.76,
-0.49178,0.81178,
-0.44,0.85151,
-0.3797,0.87648,
-0.315,0.885,
0.315,0.885,
0.3797,0.87648,
0.44,0.85151,
0.49178,0.81178,
0.53151,0.76,
0.55648,0.6997,
0.565,0.635,
0.565,-0.635,
0.55648,-0.6997,
0.53151,-0.76,
0.49178,-0.81178,
0.44,-0.85151,
0.3797,-0.87648,
0.315,-0.885,
0*%
%AMOUTLINE12*
4,1,28,
-1.035,-0.16002,
-1.035,0.15998,
-1.02921,0.20398,
-1.01223,0.24498,
-0.98521,0.28019,
-0.95001,0.30721,
-0.90901,0.32419,
-0.86501,0.32998,
0.86499,0.33002,
0.90899,0.32422,
0.94999,0.30724,
0.9852,0.28023,
1.01222,0.24502,
1.0292,0.20402,
1.035,0.16002,
1.035,-0.15998,
1.02921,-0.20398,
1.01223,-0.24498,
0.98521,-0.28019,
0.95001,-0.30721,
0.90901,-0.32419,
0.86501,-0.32998,
-0.86499,-0.33002,
-0.90899,-0.32422,
-0.94999,-0.30724,
-0.9852,-0.28023,
-1.01222,-0.24502,
-1.0292,-0.20402,
-1.035,-0.16002,
0*%
%AMOUTLINE15*
4,1,28,
1.035,0.16002,
1.035,-0.15998,
1.02921,-0.20398,
1.01223,-0.24498,
0.98521,-0.28019,
0.95001,-0.30721,
0.90901,-0.32419,
0.86501,-0.32998,
-0.86499,-0.33002,
-0.90899,-0.32422,
-0.94999,-0.30724,
-0.9852,-0.28023,
-1.01222,-0.24502,
-1.0292,-0.20402,
-1.035,-0.16002,
-1.035,0.15998,
-1.02921,0.20398,
-1.01223,0.24498,
-0.98521,0.28019,
-0.95001,0.30721,
-0.90901,0.32419,
-0.86501,0.32998,
0.86499,0.33002,
0.90899,0.32422,
0.94999,0.30724,
0.9852,0.28023,
1.01222,0.24502,
1.0292,0.20402,
1.035,0.16002,
0*%
%TA.AperFunction,Conductor*%
%ADD13C,0.5*%
%ADD14C,1.0*%
%TA.AperFunction,CopperBalancing*%
%ADD15C,0.635*%
%TA.AperFunction,ComponentPad*%
%ADD17R,1.92X1.92*%
%ADD18C,1.92*%
%ADD21C,1.95*%
%ADD22C,3.916*%
%ADD23R,1.5X1.5*%
%ADD24C,1.5*%
%ADD25R,1.05X1.05*%
%ADD26C,1.05*%
%ADD51OUTLINE0*%
%ADD54OUTLINE3*%
%ADD57OUTLINE6*%
%ADD60OUTLINE9*%
%ADD63OUTLINE12*%
%ADD66OUTLINE15*%
G75*
G01*
%LPD*%
X2598950Y4054760D2*
D13*
X2753330D1*
X2952223Y4253653D1*
X3255730D1*
X2598950Y4054760D2*
X2570463D1*
X2223010Y4402210D1*
Y4932383D1*
X2539010Y5248383D1*
X3181537D1*
X3309543Y5376390D1*
Y5508160D1*
X4554030Y4054753D2*
Y4282507D1*
X4838767Y4567243D1*
Y5244870D1*
X4301573Y5782067D1*
X3413267D1*
X3309543Y5678343D1*
Y5508160D1*
X4096373Y4822507D2*
Y4720543D1*
X3740730Y4364900D1*
Y4253660D1*
X4096373Y4822507D2*
Y5246130D1*
X3825933Y5516570D1*
X3817543Y5508183D1*
X2733993Y4822513D2*
Y4746483D1*
X3020757Y4459720D1*
X3337387D1*
X3430840Y4366267D1*
Y4166267D1*
X3391227Y4126653D1*
X3255733D1*
X2733993Y4822513D2*
Y4875473D1*
X2880407Y5021887D1*
X3407207D1*
X3563543Y5178223D1*
Y5508173D1*
X5382820Y2359567D2*
D14*
Y1354567D1*
X4377820D1*
Y2359567D1*
X3821960Y3518007D2*
D13*
Y3621870D1*
X3740737Y3703093D1*
Y3872660D1*
X4126793D1*
X4160873Y3838580D1*
X1553147Y2359543D2*
D14*
Y1354590D1*
X1553193Y1354543D1*
X2558147D1*
X2558193Y1354590D1*
Y2359543D1*
X2558147Y2359590D1*
X3405943D1*
Y2553543D1*
X3821960Y2969560D1*
Y3518007D1*
X4377820Y2359567D2*
X3405943D1*
Y2359590D1*
X3055543Y5508150D2*
X2286160D1*
X1190103Y4412093D1*
Y3281767D1*
X1553147Y2918723D1*
Y2359543D1*
X1749937Y3891103D2*
D13*
Y3899460D1*
X1778237Y3927760D1*
X2598950D1*
X4554037Y3927753D2*
X5345733D1*
X5352497Y3920990D1*
X3740733Y4126660D2*
X4154953D1*
X4160873Y4132580D1*
Y4497663D1*
X4350373Y4687163D1*
Y4822513D1*
X3527960Y3518007D2*
Y3942107D1*
X3470413Y3999653D1*
X3255733D1*
X3527960Y3942107D2*
Y4651570D1*
X3357010Y4822520D1*
X2987993D1*
X4554043Y3800753D2*
Y3756783D1*
X4643837Y3666990D1*
X4831087D1*
X5352517D1*
X3740733Y3999660D2*
X4019530D1*
X4034123Y3985067D1*
X4259387D1*
X4443700Y3800753D1*
X4554043D1*
X4877820Y1874567D2*
Y3666990D1*
X4831087D1*
X1749937Y3637103D2*
X2168733D1*
X2332390Y3800760D1*
X2598950D1*
X2891197D1*
X2963090Y3872653D1*
X3255737D1*
X2053170Y1874567D2*
Y3637103D1*
X1749937D1*
X1138123Y5805083D2*
D15*
X3206463D1*
X4508377D2*
X5861907D1*
X1138123Y5741917D2*
X3158520D1*
X4571540D2*
X5861907D1*
X1138123Y5678750D2*
X3145170D1*
X4634703D2*
X5861907D1*
X1138123Y5615583D2*
X3100917D1*
X4026170D2*
X4238237D1*
X4697870D2*
X5861907D1*
X1138123Y5552417D2*
X3078497D1*
X4048590D2*
X4301400D1*
X4761033D2*
X5861907D1*
X1138123Y5489250D2*
X3074940D1*
X4083090D2*
X4364563D1*
X4824197D2*
X5861907D1*
X1138123Y5426083D2*
X3089387D1*
X4146253D2*
X4427727D1*
X4887360D2*
X5861907D1*
X1138123Y5362917D2*
X2423797D1*
X4209417D2*
X4490890D1*
X4950527D2*
X5861907D1*
X1138123Y5299750D2*
X2360540D1*
X4251390D2*
X4554057D1*
X4993317D2*
X5861907D1*
X1138123Y5236583D2*
X2297377D1*
X3727893D2*
X3876113D1*
X4260733D2*
X4617220D1*
X5003117D2*
X5861907D1*
X1138123Y5173417D2*
X2234213D1*
X3727850D2*
X3931987D1*
X4260733D2*
X4674413D1*
X5003117D2*
X5861907D1*
X1138123Y5110250D2*
X2171047D1*
X3712537D2*
X3931987D1*
X4260733D2*
X4674413D1*
X5003117D2*
X5861907D1*
X1138123Y5047083D2*
X2107883D1*
X3662223D2*
X3931987D1*
X4260733D2*
X4674413D1*
X5003117D2*
X5861907D1*
X1138123Y4983917D2*
X2067277D1*
X3599060D2*
X3931987D1*
X5003117D2*
X5861907D1*
X1138123Y4920750D2*
X2058620D1*
X3535897D2*
X3906647D1*
X5003117D2*
X5861907D1*
X1138123Y4857583D2*
X2058620D1*
X3551757D2*
X3885000D1*
X5003117D2*
X5861907D1*
X1138123Y4794417D2*
X2058620D1*
X3614920D2*
X3883907D1*
X5003117D2*
X5861907D1*
X1138123Y4731250D2*
X2058620D1*
X3670793D2*
X3877253D1*
X5003117D2*
X5861907D1*
X1138123Y4668083D2*
X2058620D1*
X3691483D2*
X3814087D1*
X5003117D2*
X5861907D1*
X1138123Y4604917D2*
X2058620D1*
X2387367D2*
X2645737D1*
X3692347D2*
X3750923D1*
X4491650D2*
X4646613D1*
X5003117D2*
X5861907D1*
X1138123Y4541750D2*
X2058620D1*
X2387367D2*
X2708900D1*
X4434777D2*
X4583450D1*
X5001067D2*
X5861907D1*
X1138123Y4478583D2*
X2058620D1*
X2387367D2*
X2772063D1*
X4371613D2*
X4520287D1*
X4975910D2*
X5861907D1*
X1138123Y4415417D2*
X2058620D1*
X2439640D2*
X2835227D1*
X4325263D2*
X4457123D1*
X4916757D2*
X5861907D1*
X1138123Y4352250D2*
X2066730D1*
X2502803D2*
X2821010D1*
X4325263D2*
X4405897D1*
X4853590D2*
X5861907D1*
X1138123Y4289083D2*
X2106333D1*
X2565967D2*
X2757843D1*
X4327407D2*
X4389810D1*
X4790427D2*
X5861907D1*
X1138123Y4225917D2*
X2169497D1*
X4727263D2*
X5861907D1*
X1138123Y4162750D2*
X2232663D1*
X4718423D2*
X5861907D1*
X1138123Y4099583D2*
X2295827D1*
X4745903D2*
X5138117D1*
X5566853D2*
X5861907D1*
X1138123Y4036417D2*
X1535580D1*
X5566853D2*
X5861907D1*
X1138123Y3973250D2*
X1535580D1*
X5566853D2*
X5861907D1*
X1138123Y3910083D2*
X1535580D1*
X5566853D2*
X5861907D1*
X1138123Y3846917D2*
X1535580D1*
X5566853D2*
X5861907D1*
X1138123Y3783750D2*
X1535580D1*
X3692347D2*
X4230897D1*
X5566853D2*
X5861907D1*
X1138123Y3720583D2*
X1535580D1*
X3692347D2*
X4294063D1*
X5566853D2*
X5861907D1*
X1138123Y3657417D2*
X1536580D1*
X2964047D2*
X3351523D1*
X3704423D2*
X4370807D1*
X5566670D2*
X5861907D1*
X1138123Y3594250D2*
X1540047D1*
X2355693D2*
X3332610D1*
X3723337D2*
X4486743D1*
X5553773D2*
X5861907D1*
X1138123Y3531083D2*
X1564610D1*
X2292530D2*
X3332110D1*
X3723840D2*
X4556880D1*
X5530120D2*
X5861907D1*
X1138123Y3467917D2*
X1553627D1*
X2217517D2*
X3332110D1*
X3723840D2*
X4713470D1*
X5042173D2*
X5145547D1*
X5559517D2*
X5861907D1*
X1138123Y3404750D2*
X1536717D1*
X2217517D2*
X3340130D1*
X3715773D2*
X4713470D1*
X5042173D2*
X5138347D1*
X5566763D2*
X5861907D1*
X1138123Y3341583D2*
X1539770D1*
X2217517D2*
X3379550D1*
X3676353D2*
X4713470D1*
X5042173D2*
X5150787D1*
X5554277D2*
X5861907D1*
X1138123Y3278417D2*
X1563833D1*
X2217517D2*
X4713470D1*
X5042173D2*
X5187563D1*
X5517497D2*
X5861907D1*
X1138123Y3215250D2*
X1620710D1*
X2217517D2*
X4713470D1*
X5042173D2*
X5281627D1*
X5423480D2*
X5861907D1*
X1138123Y3152083D2*
X1888813D1*
X2217517D2*
X4713470D1*
X5042173D2*
X5861907D1*
X1138123Y3088917D2*
X1888813D1*
X2217517D2*
X4713470D1*
X5042173D2*
X5861907D1*
X1138123Y3025750D2*
X1888813D1*
X2217517D2*
X4713470D1*
X5042173D2*
X5861907D1*
X1138123Y2962583D2*
X1888813D1*
X2217517D2*
X4713470D1*
X5042173D2*
X5861907D1*
X1138123Y2899417D2*
X1888813D1*
X2217517D2*
X4713470D1*
X5042173D2*
X5861907D1*
X1138123Y2836250D2*
X1888813D1*
X2217517D2*
X4713470D1*
X5042173D2*
X5861907D1*
X1138123Y2773083D2*
X1888813D1*
X2217517D2*
X4713470D1*
X5042173D2*
X5861907D1*
X1138123Y2709917D2*
X1888813D1*
X2217517D2*
X4713470D1*
X5042173D2*
X5861907D1*
X1138123Y2646750D2*
X1888813D1*
X2217517D2*
X4713470D1*
X5042173D2*
X5861907D1*
X1138123Y2583583D2*
X1888813D1*
X2217517D2*
X4713470D1*
X5042173D2*
X5861907D1*
X1138123Y2520417D2*
X1888813D1*
X2217517D2*
X4713470D1*
X5042173D2*
X5861907D1*
X1138123Y2457250D2*
X1888813D1*
X2217517D2*
X4713470D1*
X5042173D2*
X5861907D1*
X1138123Y2394083D2*
X1888813D1*
X2217517D2*
X4713470D1*
X5042173D2*
X5861907D1*
X1138123Y2330917D2*
X1888813D1*
X2217517D2*
X4713470D1*
X5042173D2*
X5861907D1*
X1138123Y2267750D2*
X1888813D1*
X2217517D2*
X4713470D1*
X5042173D2*
X5861907D1*
X1138123Y2204583D2*
X1888813D1*
X2217517D2*
X4713470D1*
X5042173D2*
X5861907D1*
X1138123Y2141417D2*
X1888813D1*
X2217517D2*
X4713470D1*
X5042173D2*
X5861907D1*
X1138123Y2078250D2*
X1888813D1*
X2217517D2*
X4713470D1*
X5042173D2*
X5861907D1*
X1138123Y2015083D2*
X1864070D1*
X2242263D2*
X4688723D1*
X5066917D2*
X5861907D1*
X1138123Y1951917D2*
X1829660D1*
X2276670D2*
X4654317D1*
X5101327D2*
X5861907D1*
X1138123Y1888750D2*
X1816717D1*
X2289613D2*
X4641373D1*
X5114270D2*
X5861907D1*
X1138123Y1825583D2*
X1821550D1*
X2284783D2*
X4646203D1*
X5109437D2*
X5861907D1*
X1138123Y1762417D2*
X1845430D1*
X2260903D2*
X4670083D1*
X5085557D2*
X5861907D1*
X1138123Y1699250D2*
X1897153D1*
X2209177D2*
X4721810D1*
X5033833D2*
X5861907D1*
X1138123Y1636083D2*
X5861907D1*
X1138123Y1572917D2*
X5861907D1*
X1138123Y1509750D2*
X5861907D1*
X1138123Y1446583D2*
X5861907D1*
X1138123Y1383417D2*
X5861907D1*
X1138123Y1320250D2*
X5861907D1*
X1138123Y1257083D2*
X5861907D1*
X1138123Y1193917D2*
X5861907D1*
X3518927Y4910133D2*
X3659647Y5050853D1*
X3680417Y5071870D1*
X3694793Y5090223D1*
X3706313Y5110490D1*
X3714723Y5132233D1*
X3719843Y5154977D1*
X3721563Y5178223D1*
X3721580Y5300490D1*
X3737190Y5293723D1*
X3759300Y5286693D1*
X3782007Y5281937D1*
X3805077Y5279503D1*
X3828277Y5279417D1*
X3838580Y5280423D1*
X3934737Y5184293D1*
X3938353Y5180660D1*
X3938363Y4957383D1*
X3933733Y4952200D1*
X3920233Y4933177D1*
X3908950Y4912760D1*
X3900023Y4891207D1*
X3893567Y4868790D1*
X3889660Y4845793D1*
X3888353Y4822500D1*
X3889663Y4799210D1*
X3893570Y4776213D1*
X3900030Y4753797D1*
X3901817Y4749483D1*
X3777150Y4624797D1*
X3685980Y4533607D1*
Y4651500D1*
X3685807Y4659010D1*
X3682993Y4682150D1*
X3676807Y4704627D1*
X3667380Y4725950D1*
X3654920Y4745650D1*
X3639697Y4763307D1*
X3505127Y4897877D1*
X3518927Y4910133D1*
X4014813Y5624060D2*
X4018207Y5618567D1*
X4028343Y5597700D1*
X4036320Y5575913D1*
X4042050Y5553433D1*
X4045477Y5530490D1*
X4045987Y5520010D1*
X4208110Y5357867D1*
X4223333Y5340213D1*
X4235793Y5320510D1*
X4245220Y5299187D1*
X4251407Y5276710D1*
X4254217Y5253547D1*
X4254393Y5222597D1*
Y5007057D1*
X4260110Y5009930D1*
X4281663Y5018857D1*
X4304080Y5025317D1*
X4327077Y5029223D1*
X4350367Y5030533D1*
X4373657Y5029227D1*
X4396363Y5025370D1*
X4396353Y5030540D1*
X4680750D1*
X4680747Y5179430D1*
X4236123Y5624043D1*
X4015080Y5624047D1*
X4396010Y4282417D2*
X4396017Y4151457D1*
X4387247Y4136003D1*
X4385257Y4131783D1*
X4382393Y4125157D1*
Y4164080D1*
X4382263Y4170513D1*
X4379597Y4193673D1*
X4373553Y4216187D1*
X4364267Y4237570D1*
X4351930Y4257350D1*
X4336820Y4275103D1*
X4318893Y4290707D1*
X4318887Y4432200D1*
X4446320Y4559633D1*
X4467247Y4580810D1*
X4481623Y4599163D1*
X4490717Y4614500D1*
X4662563Y4614513D1*
X4442293Y4394243D1*
X4437837Y4389603D1*
X4423343Y4371343D1*
X4411697Y4351147D1*
X4403147Y4329460D1*
X4397880Y4306750D1*
X4396013Y4283490D1*
X2840437Y4365340D2*
X2690950Y4215823D1*
X2690513Y4216110D1*
X2669567Y4226313D1*
X2647510Y4233813D1*
X2624683Y4238487D1*
X2608680Y4240017D1*
X2381030Y4467667D1*
X2381010Y4614487D1*
X2642523Y4614480D1*
X2869000Y4388003D1*
X2841187Y4366083D2*
X2858970Y4381223D1*
X2841187Y4366083D1*
X3346897Y3706707D2*
X3342240Y3706633D1*
X3169317Y3706630D1*
X3148293Y3708100D1*
X3125513Y3713147D1*
X3118167Y3714633D1*
X3028547D1*
X3002933Y3689023D1*
X2985280Y3673800D1*
X2965577Y3661340D1*
X2944253Y3651913D1*
X2921777Y3645727D1*
X2898613Y3642917D1*
X2870323Y3642740D1*
X2696167D1*
X2686247Y3637063D1*
X2665040Y3627413D1*
X2642793Y3620497D1*
X2619853Y3616420D1*
X2596587Y3615257D1*
X2573357Y3617013D1*
X2550527Y3621670D1*
X2528463Y3629153D1*
X2507510Y3639340D1*
X2502310Y3642733D1*
X2397840Y3642740D1*
X2280470Y3525367D1*
X2262817Y3510143D1*
X2243113Y3497683D1*
X2221770Y3488250D1*
X2211190Y3473913D1*
Y2042333D1*
X2211970Y2041667D1*
X2228060Y2024743D1*
X2242357Y2006277D1*
X2254710Y1986463D1*
X2264997Y1965500D1*
X2273110Y1943603D1*
X2278963Y1920997D1*
X2282503Y1897917D1*
X2283690Y1874567D1*
X2282510Y1851273D1*
X2278977Y1828190D1*
X2273127Y1805583D1*
X2265017Y1783687D1*
X2254737Y1762720D1*
X2242387Y1742900D1*
X2228097Y1724433D1*
X2212010Y1707507D1*
X2194293Y1692293D1*
X2175130Y1678953D1*
X2154713Y1667617D1*
X2133257Y1658407D1*
X2110977Y1651413D1*
X2088103Y1646710D1*
X2064873Y1644343D1*
X2041520Y1644340D1*
X2018290Y1646700D1*
X1995417Y1651400D1*
X1973133Y1658387D1*
X1951673Y1667593D1*
X1931257Y1678923D1*
X1912090Y1692260D1*
X1894370Y1707467D1*
X1878277Y1724390D1*
X1863983Y1742853D1*
X1851627Y1762670D1*
X1841343Y1783633D1*
X1833230Y1805530D1*
X1827373Y1828137D1*
X1823833Y1851217D1*
X1822650Y1874540D1*
X1823830Y1897860D1*
X1827363Y1920943D1*
X1833213Y1943550D1*
X1841320Y1965447D1*
X1851600Y1986413D1*
X1863950Y2006233D1*
X1878243Y2024700D1*
X1894327Y2041627D1*
X1895140Y2042323D1*
X1895150Y3234160D1*
X1879640Y3220470D1*
X1860617Y3206970D1*
X1840200Y3195687D1*
X1818647Y3186760D1*
X1796233Y3180300D1*
X1773233Y3176393D1*
X1749943Y3175083D1*
X1726653Y3176390D1*
X1703653Y3180297D1*
X1681237Y3186753D1*
X1659687Y3195680D1*
X1639270Y3206963D1*
X1620243Y3220463D1*
X1602850Y3236007D1*
X1587303Y3253400D1*
X1573803Y3272423D1*
X1562520Y3292840D1*
X1553593Y3314393D1*
X1547133Y3336807D1*
X1543227Y3359807D1*
X1541917Y3383097D1*
X1543223Y3406387D1*
X1547130Y3429387D1*
X1553587Y3451803D1*
X1562513Y3473353D1*
X1573797Y3493770D1*
X1585280Y3509953D1*
X1573803Y3526423D1*
X1562520Y3546840D1*
X1553593Y3568393D1*
X1547133Y3590807D1*
X1543227Y3613807D1*
X1541917Y3637097D1*
X1543223Y3660387D1*
X1547080Y3683093D1*
X1541917Y3683083D1*
Y4099123D1*
X1957957D1*
Y4085793D1*
X2315983Y4085780D1*
X2110563Y4291187D1*
X2095453Y4308940D1*
X2083117Y4328720D1*
X2073830Y4350103D1*
X2067787Y4372617D1*
X2065120Y4395777D1*
X2064990Y4402210D1*
X2064993Y4933390D1*
X2066860Y4956627D1*
X2072127Y4979337D1*
X2080677Y5001027D1*
X2092323Y5021220D1*
X2106817Y5039480D1*
X2111273Y5044120D1*
X2427987Y5360830D1*
X2445740Y5375940D1*
X2465520Y5388277D1*
X2486903Y5397563D1*
X2509417Y5403607D1*
X2532577Y5406273D1*
X2539010Y5406403D1*
X3104687Y5406423D1*
X3099037Y5417960D1*
X3090990Y5439720D1*
X3085187Y5462180D1*
X3081687Y5485113D1*
X3080523Y5508287D1*
X3081713Y5531453D1*
X3085237Y5554383D1*
X3091063Y5576840D1*
X3099133Y5598590D1*
X3109360Y5619413D1*
X3121643Y5639093D1*
X3135853Y5657433D1*
X3151520Y5673893D1*
X3151523Y5678343D1*
X3153243Y5701593D1*
X3158363Y5724333D1*
X3166777Y5746077D1*
X3178293Y5766343D1*
X3192687Y5784713D1*
X3215093Y5807367D1*
X3275983Y5868257D1*
X1131760Y5868250D1*
X1131750Y3963367D1*
Y1131760D1*
X3036633Y1131750D1*
X5868240D1*
X5868250Y3013300D1*
Y5868240D1*
X4438850Y5868250D1*
X4950503Y5356607D1*
X4965727Y5338950D1*
X4978187Y5319250D1*
X4987613Y5297927D1*
X4993800Y5275450D1*
X4996610Y5252287D1*
X4996787Y5222283D1*
Y4567243D1*
X4995067Y4543993D1*
X4989947Y4521253D1*
X4981533Y4499510D1*
X4970017Y4479243D1*
X4955623Y4460873D1*
X4934687Y4439687D1*
X4712060Y4217063D1*
X4712050Y4151930D1*
X4722943Y4131470D1*
X4724820Y4127197D1*
X4726590Y4122880D1*
X4728247Y4118517D1*
X4730070Y4113270D1*
X4739557Y4113273D1*
Y4085770D1*
X5144453Y4085773D1*
X5144477Y4129010D1*
X5560517D1*
Y3712970D1*
X5555387D1*
X5559227Y3690287D1*
X5560537Y3666990D1*
X5559230Y3643707D1*
X5555323Y3620707D1*
X5548867Y3598293D1*
X5539940Y3576740D1*
X5528657Y3556323D1*
X5517173Y3540140D1*
X5528670Y3523670D1*
X5539953Y3503253D1*
X5548883Y3481700D1*
X5555340Y3459287D1*
X5559250Y3436287D1*
X5560557Y3412990D1*
X5559250Y3389707D1*
X5555343Y3366707D1*
X5548887Y3344293D1*
X5539960Y3322740D1*
X5528677Y3302323D1*
X5515180Y3283297D1*
X5499637Y3265903D1*
X5482240Y3250357D1*
X5463217Y3236860D1*
X5442800Y3225573D1*
X5421250Y3216647D1*
X5398833Y3210187D1*
X5375837Y3206280D1*
X5352543Y3204970D1*
X5329253Y3206277D1*
X5306257Y3210183D1*
X5283840Y3216643D1*
X5262287Y3225570D1*
X5241870Y3236853D1*
X5222843Y3250350D1*
X5205450Y3265893D1*
X5189907Y3283287D1*
X5176407Y3302313D1*
X5165120Y3322730D1*
X5156193Y3344280D1*
X5149737Y3366697D1*
X5145827Y3389693D1*
X5144517Y3412983D1*
X5145827Y3436277D1*
X5149733Y3459273D1*
X5156190Y3481690D1*
X5165117Y3503240D1*
X5168277Y3508963D1*
X5035850Y3508970D1*
X5035840Y2150677D1*
Y2042420D1*
X5052710Y2024743D1*
X5067007Y2006280D1*
X5079360Y1986463D1*
X5089647Y1965500D1*
X5097760Y1943603D1*
X5103613Y1920997D1*
X5107153Y1897917D1*
X5108340Y1874567D1*
X5107160Y1851273D1*
X5103627Y1828190D1*
X5097777Y1805583D1*
X5089667Y1783687D1*
X5079387Y1762720D1*
X5067037Y1742900D1*
X5052747Y1724433D1*
X5036660Y1707507D1*
X5018943Y1692293D1*
X4999780Y1678953D1*
X4979363Y1667617D1*
X4957907Y1658407D1*
X4935627Y1651413D1*
X4912753Y1646710D1*
X4889523Y1644343D1*
X4866170Y1644340D1*
X4842940Y1646700D1*
X4820067Y1651400D1*
X4797783Y1658387D1*
X4776323Y1667593D1*
X4755907Y1678923D1*
X4736737Y1692260D1*
X4719020Y1707467D1*
X4702927Y1724390D1*
X4688633Y1742853D1*
X4676277Y1762670D1*
X4665993Y1783633D1*
X4657880Y1805530D1*
X4652023Y1828137D1*
X4648483Y1851217D1*
X4647300Y1874540D1*
X4648480Y1897860D1*
X4652013Y1920943D1*
X4657863Y1943550D1*
X4665970Y1965447D1*
X4676250Y1986413D1*
X4688600Y2006233D1*
X4702893Y2024700D1*
X4718977Y2041627D1*
X4719790Y2042323D1*
X4719800Y3508983D1*
X4643837Y3508970D1*
X4620587Y3510690D1*
X4597843Y3515810D1*
X4576103Y3524223D1*
X4555837Y3535743D1*
X4537467Y3550133D1*
X4517133Y3570220D1*
X4444627Y3642727D1*
X4443700Y3642733D1*
X4420450Y3644453D1*
X4397710Y3649573D1*
X4375967Y3657987D1*
X4355700Y3669503D1*
X4337330Y3683897D1*
X4316603Y3704377D1*
X4193940Y3827040D1*
X4034123Y3827047D1*
X4010873Y3828767D1*
X3988110Y3833897D1*
X3967790Y3841640D1*
X3875550D1*
X3855043Y3836243D1*
X3831873Y3833713D1*
X3827237Y3833643D1*
X3685960Y3833640D1*
X3685980Y3676167D1*
X3687017Y3674777D1*
X3699353Y3654997D1*
X3708643Y3633613D1*
X3714687Y3611100D1*
X3717350Y3587940D1*
X3717480Y3581507D1*
Y3454507D1*
X3715760Y3431257D1*
X3710640Y3408517D1*
X3702230Y3386773D1*
X3690710Y3366507D1*
X3676333Y3348153D1*
X3659417Y3332117D1*
X3640320Y3318743D1*
X3619467Y3308323D1*
X3597307Y3301087D1*
X3574300Y3297187D1*
X3559323Y3296487D1*
X3496533D1*
X3488017Y3296713D1*
X3464893Y3299673D1*
X3442457Y3306000D1*
X3421193Y3315563D1*
X3401570Y3328147D1*
X3384013Y3343483D1*
X3368903Y3361237D1*
X3356570Y3381017D1*
X3347280Y3402400D1*
X3341237Y3424913D1*
X3338570Y3448073D1*
X3338440Y3454507D1*
Y3581447D1*
X3338667Y3589953D1*
X3341627Y3613077D1*
X3347957Y3635513D1*
X3357530Y3656793D1*
X3369940Y3676167D1*
Y3709207D1*
X3346897Y3706707D1*
D17*
X3055544Y5508150D3*
D18*
X3309544Y5508161D3*
X3563544Y5508172D3*
X3817544Y5508183D3*
D21*
X4877820Y1874567D3*
D22*
X5382820Y1354567D3*
Y2359567D3*
X4377820D3*
Y1354567D3*
D21*
X2053169Y1874567D3*
D22*
X2558192Y1354589D3*
X2558148Y2359589D3*
X1553148Y2359545D3*
X1553192Y1354545D3*
D23*
X5352495Y3920991D3*
D24*
X5352517Y3666991D3*
X5352538Y3412991D3*
D51*
X4160873Y3838580D3*
D54*
Y4132580D3*
D23*
X4604374Y4822519D3*
D24*
X4350374Y4822513D3*
X4096374Y4822508D3*
D57*
X3821960Y3518007D3*
D60*
X3527960D3*
D23*
X2479993Y4822506D3*
D24*
X2733993Y4822513D3*
X2987993Y4822521D3*
D23*
X1749937Y3891103D3*
D24*
Y3637103D3*
Y3383103D3*
D25*
X4554037Y3927754D3*
D26*
X4554030Y4054754D3*
X4554044Y3800754D3*
D63*
X3740730Y4253661D3*
X3740732Y4126661D3*
X3740735Y3999661D3*
X3740737Y3872661D3*
D66*
X3255737Y3872652D3*
X3255735Y3999652D3*
X3255732Y4126652D3*
X3255730Y4253652D3*
D25*
X2598950Y3927760D3*
D26*
Y4054760D3*
Y3800760D3*
M02*
