M48
METRIC,0000.00
T01C0.65
T02C0.9
T03C1.2
T04C1.28
T05C1.8
%
T01
X+004554Y+003928
X+004554Y+004055
X+004554Y+003801
X+002599Y+003801
X+002599Y+003928
X+002599Y+004055
T02
X+005352Y+003921
X+005353Y+003667
X+005353Y+003413
X+004604Y+004823
X+004350Y+004823
X+004096Y+004823
X+002988Y+004823
X+002734Y+004823
X+002480Y+004823
X+001750Y+003891
X+001750Y+003637
X+001750Y+003383
T03
X+004878Y+001875
X+002053Y+001875
T04
X+003056Y+005508
X+003310Y+005508
X+003564Y+005508
X+003818Y+005508
T05
X+005383Y+001355
X+004378Y+001355
X+004378Y+002360
X+005383Y+002360
X+002558Y+002360
X+001553Y+002360
X+001553Y+001355
X+002558Y+001355
T00
M30
